<svg width="1080" height="398" viewBox="0 0 1080 398" fill="none" xmlns="http://www.w3.org/2000/svg">
<g clip-path="url(#clip0)">
<path d="M6.09375 71V2.75H27.0938C33.0938 2.75 38.4531 4.10938 43.1719 6.82812C47.9219 9.51562 51.625 13.3594 54.2812 18.3594C56.9375 23.3281 58.2656 28.9844 58.2656 35.3281V38.4688C58.2656 44.8125 56.9531 50.4531 54.3281 55.3906C51.7344 60.3281 48.0625 64.1562 43.3125 66.875C38.5625 69.5938 33.2031 70.9688 27.2344 71H6.09375ZM20.1562 14.1406V59.7031H26.9531C32.4531 59.7031 36.6562 57.9062 39.5625 54.3125C42.4688 50.7188 43.9531 45.5781 44.0156 38.8906V35.2812C44.0156 28.3438 42.5781 23.0938 39.7031 19.5312C36.8281 15.9375 32.625 14.1406 27.0938 14.1406H20.1562ZM97.0312 71C96.4062 69.7812 95.9531 68.2656 95.6719 66.4531C92.3906 70.1094 88.125 71.9375 82.875 71.9375C77.9062 71.9375 73.7812 70.5 70.5 67.625C67.25 64.75 65.625 61.125 65.625 56.75C65.625 51.375 67.6094 47.25 71.5781 44.375C75.5781 41.5 81.3438 40.0469 88.875 40.0156H95.1094V37.1094C95.1094 34.7656 94.5 32.8906 93.2812 31.4844C92.0938 30.0781 90.2031 29.375 87.6094 29.375C85.3281 29.375 83.5312 29.9219 82.2188 31.0156C80.9375 32.1094 80.2969 33.6094 80.2969 35.5156H66.75C66.75 32.5781 67.6562 29.8594 69.4688 27.3594C71.2812 24.8594 73.8438 22.9062 77.1562 21.5C80.4688 20.0625 84.1875 19.3438 88.3125 19.3438C94.5625 19.3438 99.5156 20.9219 103.172 24.0781C106.859 27.2031 108.703 31.6094 108.703 37.2969V59.2812C108.734 64.0938 109.406 67.7344 110.719 70.2031V71H97.0312ZM85.8281 61.5781C87.8281 61.5781 89.6719 61.1406 91.3594 60.2656C93.0469 59.3594 94.2969 58.1562 95.1094 56.6562V47.9375H90.0469C83.2656 47.9375 79.6562 50.2812 79.2188 54.9688L79.1719 55.7656C79.1719 57.4531 79.7656 58.8438 80.9531 59.9375C82.1406 61.0312 83.7656 61.5781 85.8281 61.5781ZM135.328 7.8125V20.2812H144V30.2188H135.328V55.5312C135.328 57.4062 135.688 58.75 136.406 59.5625C137.125 60.375 138.5 60.7812 140.531 60.7812C142.031 60.7812 143.359 60.6719 144.516 60.4531V70.7188C141.859 71.5312 139.125 71.9375 136.312 71.9375C126.812 71.9375 121.969 67.1406 121.781 57.5469V30.2188H114.375V20.2812H121.781V7.8125H135.328ZM180.938 71C180.312 69.7812 179.859 68.2656 179.578 66.4531C176.297 70.1094 172.031 71.9375 166.781 71.9375C161.812 71.9375 157.688 70.5 154.406 67.625C151.156 64.75 149.531 61.125 149.531 56.75C149.531 51.375 151.516 47.25 155.484 44.375C159.484 41.5 165.25 40.0469 172.781 40.0156H179.016V37.1094C179.016 34.7656 178.406 32.8906 177.188 31.4844C176 30.0781 174.109 29.375 171.516 29.375C169.234 29.375 167.438 29.9219 166.125 31.0156C164.844 32.1094 164.203 33.6094 164.203 35.5156H150.656C150.656 32.5781 151.562 29.8594 153.375 27.3594C155.188 24.8594 157.75 22.9062 161.062 21.5C164.375 20.0625 168.094 19.3438 172.219 19.3438C178.469 19.3438 183.422 20.9219 187.078 24.0781C190.766 27.2031 192.609 31.6094 192.609 37.2969V59.2812C192.641 64.0938 193.312 67.7344 194.625 70.2031V71H180.938ZM169.734 61.5781C171.734 61.5781 173.578 61.1406 175.266 60.2656C176.953 59.3594 178.203 58.1562 179.016 56.6562V47.9375H173.953C167.172 47.9375 163.562 50.2812 163.125 54.9688L163.078 55.7656C163.078 57.4531 163.672 58.8438 164.859 59.9375C166.047 61.0312 167.672 61.5781 169.734 61.5781ZM254.391 56.9844C254.391 55.3281 253.562 54.0312 251.906 53.0938C250.281 52.125 247.656 51.2656 244.031 50.5156C231.969 47.9844 225.938 42.8594 225.938 35.1406C225.938 30.6406 227.797 26.8906 231.516 23.8906C235.266 20.8594 240.156 19.3438 246.188 19.3438C252.625 19.3438 257.766 20.8594 261.609 23.8906C265.484 26.9219 267.422 30.8594 267.422 35.7031H253.875C253.875 33.7656 253.25 32.1719 252 30.9219C250.75 29.6406 248.797 29 246.141 29C243.859 29 242.094 29.5156 240.844 30.5469C239.594 31.5781 238.969 32.8906 238.969 34.4844C238.969 35.9844 239.672 37.2031 241.078 38.1406C242.516 39.0469 244.922 39.8438 248.297 40.5312C251.672 41.1875 254.516 41.9375 256.828 42.7812C263.984 45.4062 267.562 49.9531 267.562 56.4219C267.562 61.0469 265.578 64.7969 261.609 67.6719C257.641 70.5156 252.516 71.9375 246.234 71.9375C241.984 71.9375 238.203 71.1875 234.891 69.6875C231.609 68.1562 229.031 66.0781 227.156 63.4531C225.281 60.7969 224.344 57.9375 224.344 54.875H237.188C237.312 57.2812 238.203 59.125 239.859 60.4062C241.516 61.6875 243.734 62.3281 246.516 62.3281C249.109 62.3281 251.062 61.8438 252.375 60.875C253.719 59.875 254.391 58.5781 254.391 56.9844ZM274.219 45.1719C274.219 40.1406 275.188 35.6562 277.125 31.7188C279.062 27.7812 281.844 24.7344 285.469 22.5781C289.125 20.4219 293.359 19.3438 298.172 19.3438C305.016 19.3438 310.594 21.4375 314.906 25.625C319.25 29.8125 321.672 35.5 322.172 42.6875L322.266 46.1562C322.266 53.9375 320.094 60.1875 315.75 64.9062C311.406 69.5938 305.578 71.9375 298.266 71.9375C290.953 71.9375 285.109 69.5938 280.734 64.9062C276.391 60.2188 274.219 53.8438 274.219 45.7812V45.1719ZM287.766 46.1562C287.766 50.9688 288.672 54.6562 290.484 57.2188C292.297 59.75 294.891 61.0156 298.266 61.0156C301.547 61.0156 304.109 59.7656 305.953 57.2656C307.797 54.7344 308.719 50.7031 308.719 45.1719C308.719 40.4531 307.797 36.7969 305.953 34.2031C304.109 31.6094 301.516 30.3125 298.172 30.3125C294.859 30.3125 292.297 31.6094 290.484 34.2031C288.672 36.7656 287.766 40.75 287.766 46.1562ZM360.984 65.8438C357.641 69.9062 353.016 71.9375 347.109 71.9375C341.672 71.9375 337.516 70.375 334.641 67.25C331.797 64.125 330.344 59.5469 330.281 53.5156V20.2812H343.828V53.0469C343.828 58.3281 346.234 60.9688 351.047 60.9688C355.641 60.9688 358.797 59.375 360.516 56.1875V20.2812H374.109V71H361.359L360.984 65.8438ZM412.828 32.9844C410.984 32.7344 409.359 32.6094 407.953 32.6094C402.828 32.6094 399.469 34.3438 397.875 37.8125V71H384.328V20.2812H397.125L397.5 26.3281C400.219 21.6719 403.984 19.3438 408.797 19.3438C410.297 19.3438 411.703 19.5469 413.016 19.9531L412.828 32.9844ZM439.547 61.0156C442.047 61.0156 444.078 60.3281 445.641 58.9531C447.203 57.5781 448.016 55.75 448.078 53.4688H460.781C460.75 56.9062 459.812 60.0625 457.969 62.9375C456.125 65.7812 453.594 68 450.375 69.5938C447.188 71.1562 443.656 71.9375 439.781 71.9375C432.531 71.9375 426.812 69.6406 422.625 65.0469C418.438 60.4219 416.344 54.0469 416.344 45.9219V45.0312C416.344 37.2188 418.422 30.9844 422.578 26.3281C426.734 21.6719 432.438 19.3438 439.688 19.3438C446.031 19.3438 451.109 21.1563 454.922 24.7812C458.766 28.375 460.719 33.1719 460.781 39.1719H448.078C448.016 36.5469 447.203 34.4219 445.641 32.7969C444.078 31.1406 442.016 30.3125 439.453 30.3125C436.297 30.3125 433.906 31.4688 432.281 33.7812C430.688 36.0625 429.891 39.7812 429.891 44.9375V46.3438C429.891 51.5625 430.688 55.3125 432.281 57.5938C433.875 59.875 436.297 61.0156 439.547 61.0156ZM491.859 71.9375C484.422 71.9375 478.359 69.6562 473.672 65.0938C469.016 60.5312 466.688 54.4531 466.688 46.8594V45.5469C466.688 40.4531 467.672 35.9062 469.641 31.9062C471.609 27.875 474.391 24.7812 477.984 22.625C481.609 20.4375 485.734 19.3438 490.359 19.3438C497.297 19.3438 502.75 21.5313 506.719 25.9062C510.719 30.2812 512.719 36.4844 512.719 44.5156V50.0469H480.422C480.859 53.3594 482.172 56.0156 484.359 58.0156C486.578 60.0156 489.375 61.0156 492.75 61.0156C497.969 61.0156 502.047 59.125 504.984 55.3438L511.641 62.7969C509.609 65.6719 506.859 67.9219 503.391 69.5469C499.922 71.1406 496.078 71.9375 491.859 71.9375ZM490.312 30.3125C487.625 30.3125 485.438 31.2188 483.75 33.0312C482.094 34.8438 481.031 37.4375 480.562 40.8125H499.406V39.7344C499.344 36.7344 498.531 34.4219 496.969 32.7969C495.406 31.1406 493.188 30.3125 490.312 30.3125ZM518.344 45.2656C518.344 37.3594 520.109 31.0625 523.641 26.375C527.203 21.6875 532.062 19.3438 538.219 19.3438C543.156 19.3438 547.234 21.1875 550.453 24.875V-1H564.047V71H551.812L551.156 65.6094C547.781 69.8281 543.438 71.9375 538.125 71.9375C532.156 71.9375 527.359 69.5938 523.734 64.9062C520.141 60.1875 518.344 53.6406 518.344 45.2656ZM531.891 46.25C531.891 51 532.719 54.6406 534.375 57.1719C536.031 59.7031 538.438 60.9688 541.594 60.9688C545.781 60.9688 548.734 59.2031 550.453 55.6719V35.6562C548.766 32.125 545.844 30.3594 541.688 30.3594C535.156 30.3594 531.891 35.6562 531.891 46.25ZM602.156 71V30.2188H594.609V20.2812H602.156V15.9688C602.156 10.2813 603.781 5.875 607.031 2.75C610.312 -0.40625 614.891 -1.98438 620.766 -1.98438C622.641 -1.98438 624.938 -1.67187 627.656 -1.04688L627.516 9.45312C626.391 9.17188 625.016 9.03125 623.391 9.03125C618.297 9.03125 615.75 11.4219 615.75 16.2031V20.2812H625.828V30.2188H615.75V71H602.156ZM661.359 32.9844C659.516 32.7344 657.891 32.6094 656.484 32.6094C651.359 32.6094 648 34.3438 646.406 37.8125V71H632.859V20.2812H645.656L646.031 26.3281C648.75 21.6719 652.516 19.3438 657.328 19.3438C658.828 19.3438 660.234 19.5469 661.547 19.9531L661.359 32.9844ZM664.125 45.1719C664.125 40.1406 665.094 35.6562 667.031 31.7188C668.969 27.7812 671.75 24.7344 675.375 22.5781C679.031 20.4219 683.266 19.3438 688.078 19.3438C694.922 19.3438 700.5 21.4375 704.812 25.625C709.156 29.8125 711.578 35.5 712.078 42.6875L712.172 46.1562C712.172 53.9375 710 60.1875 705.656 64.9062C701.312 69.5938 695.484 71.9375 688.172 71.9375C680.859 71.9375 675.016 69.5938 670.641 64.9062C666.297 60.2188 664.125 53.8438 664.125 45.7812V45.1719ZM677.672 46.1562C677.672 50.9688 678.578 54.6562 680.391 57.2188C682.203 59.75 684.797 61.0156 688.172 61.0156C691.453 61.0156 694.016 59.7656 695.859 57.2656C697.703 54.7344 698.625 50.7031 698.625 45.1719C698.625 40.4531 697.703 36.7969 695.859 34.2031C694.016 31.6094 691.422 30.3125 688.078 30.3125C684.766 30.3125 682.203 31.6094 680.391 34.2031C678.578 36.7656 677.672 40.75 677.672 46.1562ZM733.219 20.2812L733.641 25.9531C737.234 21.5469 742.094 19.3438 748.219 19.3438C754.75 19.3438 759.234 21.9219 761.672 27.0781C765.234 21.9219 770.312 19.3438 776.906 19.3438C782.406 19.3438 786.5 20.9531 789.188 24.1719C791.875 27.3594 793.219 32.1719 793.219 38.6094V71H779.625V38.6562C779.625 35.7812 779.062 33.6875 777.938 32.375C776.812 31.0312 774.828 30.3594 771.984 30.3594C767.922 30.3594 765.109 32.2969 763.547 36.1719L763.594 71H750.047V38.7031C750.047 35.7656 749.469 33.6406 748.312 32.3281C747.156 31.0156 745.188 30.3594 742.406 30.3594C738.562 30.3594 735.781 31.9531 734.062 35.1406V71H720.516V20.2812H733.219Z" fill="url(#paint0_linear)"/>
<path d="M131.59 107.401C131.59 107.651 130.03 108.102 128.118 108.453C126.005 108.853 124.495 109.354 124.344 109.805C124.193 110.206 123.74 110.506 123.287 110.506C122.885 110.506 122.533 110.707 122.533 111.007C122.533 111.258 122.231 111.508 121.828 111.508C121.426 111.508 120.771 111.909 120.419 112.46C120.067 112.961 119.312 113.512 118.708 113.712C118.155 113.863 117.349 114.614 116.947 115.365C116.544 116.117 115.639 117.319 114.884 118.07C114.179 118.872 113.424 119.924 113.223 120.475C113.072 121.076 112.72 121.527 112.519 121.527C112.317 121.527 111.814 123.079 111.462 125.033C111.11 126.936 110.606 128.539 110.355 128.539C110.154 128.539 109.952 130.894 109.952 133.799C109.952 136.704 110.154 139.059 110.355 139.059C110.556 139.059 111.059 140.411 111.361 142.064C112.015 145.22 113.475 148.125 115.186 149.828C115.79 150.379 116.544 151.481 116.947 152.233C117.349 152.984 118.205 153.735 118.809 153.886C119.413 154.036 120.218 154.787 120.57 155.488C120.973 156.24 121.576 157.041 121.878 157.242C122.231 157.442 122.533 157.993 122.533 158.344C122.533 158.744 122.734 159.095 122.985 159.095C124.344 159.095 125.149 170.616 123.891 171.868C123.539 172.219 121.828 172.67 120.117 172.87C118.406 173.071 116.997 173.371 116.997 173.622C116.997 173.822 115.639 174.273 113.978 174.623C112.317 174.974 110.959 175.475 110.959 175.675C110.959 175.926 110.405 176.126 109.751 176.126C109.046 176.126 108.191 176.427 107.788 176.827C107.436 177.228 106.128 177.829 105.021 178.18C103.863 178.531 102.907 178.931 102.907 179.132C102.907 179.332 102.001 179.783 100.945 180.133C99.8377 180.484 98.8312 181.085 98.6803 181.436C98.5293 181.837 98.0764 182.137 97.6235 182.137C97.2209 182.137 96.8687 182.337 96.8687 182.588C96.8687 182.838 96.4158 183.239 95.8623 183.389C95.0571 183.64 94.0004 182.838 90.8301 179.733C88.616 177.529 86.8044 175.525 86.8044 175.225C86.8044 174.974 86.5025 174.623 86.0999 174.473C85.6973 174.323 85.2444 173.121 85.0432 171.668C84.8419 170.265 84.4896 169.113 84.238 169.113C83.5335 169.113 83.6845 166.709 84.4393 166.509C85.2948 166.208 85.3451 146.222 84.4393 145.671C84.0871 145.47 83.6845 144.318 83.4832 143.166C83.2819 142.014 82.98 141.062 82.7284 141.062C82.5271 141.062 82.0239 140.161 81.7219 139.059C81.3697 137.956 80.9671 137.055 80.8162 137.055C80.6652 137.055 80.2123 136.354 79.8097 135.502C78.5517 132.647 72.0602 126.135 68.89 124.532C68.0848 124.131 67.2294 123.48 67.0281 123.18C66.8268 122.829 66.2733 122.528 65.921 122.528C65.5185 122.528 65.1662 122.328 65.1662 122.128C65.1662 121.877 63.9585 121.426 62.5495 121.026C61.0902 120.675 59.7818 120.174 59.6309 119.974C59.4799 119.723 56.7625 119.322 53.5923 118.972C47.5034 118.371 38.1436 118.972 37.5398 119.974C37.3385 120.274 36.2314 120.625 35.074 120.825C33.8663 121.026 32.6083 121.476 32.256 121.827C31.8534 122.178 30.998 122.629 30.2432 122.829C29.5387 122.979 28.9348 123.28 28.9348 123.48C28.9348 123.63 28.2303 124.081 27.3748 124.482C25.6136 125.233 18.0654 132.697 17.6125 134.099C17.4112 134.6 17.059 135.051 16.8073 135.051C16.5557 135.051 16.3545 135.402 16.3545 135.803C16.3545 136.253 16.0525 136.704 15.65 136.854C15.2474 137.005 14.6435 138.257 14.2913 139.609C13.939 140.962 13.4861 142.064 13.2848 142.064C13.0836 142.064 12.7816 142.916 12.5803 143.917C12.3791 144.969 11.9765 145.971 11.6746 146.171C10.8694 146.672 10.8191 164.505 11.6242 165.006C11.9262 165.206 12.3287 166.258 12.4797 167.31C12.681 168.412 12.9829 169.414 13.2345 169.564C13.4358 169.714 13.939 170.816 14.241 171.969C14.5932 173.171 15.0964 174.122 15.348 174.122C15.5996 174.122 15.9519 174.623 16.1532 175.225C16.5054 176.377 16.6564 176.627 18.6189 178.831C19.3234 179.633 19.877 180.434 19.877 180.634C19.877 181.235 22.0911 183.339 23.5504 184.091C24.3052 184.491 24.9091 184.992 24.9091 185.243C24.9091 185.493 25.4626 185.894 26.1671 186.144C26.8716 186.395 27.4252 186.846 27.4252 187.096C27.4252 187.347 28.0793 187.697 28.9348 187.898C29.7399 188.098 30.4444 188.399 30.4444 188.599C30.4444 188.799 31.3502 189.3 32.4573 189.651C33.5644 190.001 34.4702 190.502 34.4702 190.703C34.4702 190.903 35.5269 191.254 36.8856 191.454C38.1939 191.654 39.4017 192.055 39.6029 192.356C40.1565 193.207 56.209 193.107 56.5109 192.256C56.7122 191.604 64.1598 191.354 64.1598 192.055C64.1598 192.256 65.1159 192.706 66.2733 193.057C67.7829 193.508 69.5442 194.91 72.6138 197.966C74.9286 200.27 76.5892 202.174 76.2872 202.174C75.9853 202.174 75.7337 202.474 75.7337 202.825C75.7337 203.226 75.2808 204.027 74.7273 204.678C74.1737 205.329 73.7208 206.081 73.7208 206.431C73.7208 206.782 73.268 207.533 72.7144 208.185C72.1609 208.836 71.708 209.637 71.708 210.038C71.708 210.389 71.5067 210.689 71.2551 210.689C71.0035 210.689 70.5003 211.791 70.148 213.194C69.7958 214.546 69.3429 215.698 69.1416 215.698C68.9403 215.698 68.5881 216.45 68.4371 217.301C68.2358 218.203 67.8836 219.054 67.632 219.205C67.4307 219.355 66.9275 221.008 66.5752 222.861C66.223 224.715 65.7701 226.218 65.5688 226.218C65.4178 226.218 65.0656 227.47 64.9146 228.973L64.5624 231.728H59.8321C57.2154 231.728 55.1019 231.577 55.1019 231.327C55.1019 231.127 53.9949 230.726 52.6362 230.375C50.573 229.874 49.5666 229.173 46.6983 226.268C44.786 224.314 42.9745 222.711 42.6725 222.711C42.3706 222.711 42.0184 222.411 41.8674 222.01C41.7164 221.609 40.9113 221.158 40.0558 220.958C39.2004 220.758 38.4959 220.457 38.4959 220.207C38.4959 220.006 37.892 219.656 37.1372 219.455C36.3824 219.305 35.6275 218.904 35.4263 218.654C35.2753 218.403 33.1618 217.952 30.7464 217.602C27.3245 217.201 25.1607 217.201 21.3363 217.702C18.6189 218.053 16.3545 218.503 16.3545 218.704C16.3545 218.904 15.8009 219.255 15.0964 219.405C14.3919 219.605 13.8384 219.906 13.8384 220.156C13.8384 220.407 13.1339 220.758 12.2784 220.958C11.423 221.158 10.6178 221.609 10.4669 222.01C10.3662 222.361 9.76235 222.811 9.25914 222.962C8.0011 223.362 6.23985 225.116 5.33407 226.869C4.9315 227.62 4.42828 228.221 4.17668 228.221C3.97539 228.221 3.7741 228.572 3.7741 228.973C3.7741 229.423 3.47218 229.874 3.06961 230.024C2.66703 230.175 2.06318 231.327 1.71093 232.629C1.35868 233.932 0.855464 235.134 0.553535 235.334C0.201286 235.585 0 238.64 0 244C0 249.36 0.201286 252.415 0.553535 252.666C0.855464 252.866 1.35868 254.068 1.71093 255.371C2.06318 256.673 2.66703 257.825 3.06961 257.976C3.47218 258.126 3.7741 258.527 3.7741 258.827C3.7741 259.729 10.9197 266.591 12.3287 267.042C12.9829 267.242 13.8384 267.743 14.241 268.094C14.5932 268.495 15.4487 268.795 16.1028 268.795C16.757 268.795 17.3609 268.996 17.4615 269.296C17.7635 270.248 25.5633 270.849 30.2432 270.298C32.6586 270.048 34.7721 269.597 34.923 269.396C35.074 269.146 35.9798 268.745 36.8856 268.545C37.741 268.395 38.4959 268.044 38.4959 267.793C38.4959 267.543 39.2004 267.242 40.0055 267.042C40.861 266.842 41.7668 266.291 42.0184 265.74C42.3203 265.239 42.8738 264.788 43.2261 264.788C43.9306 264.788 47.5537 260.981 47.5537 260.23C47.5537 259.979 47.906 259.779 48.3085 259.779C48.7614 259.779 49.2143 259.478 49.3653 259.078C49.5163 258.677 50.7743 258.076 52.133 257.725C53.4916 257.374 54.5987 256.924 54.5987 256.673C54.5987 256.473 56.8129 256.272 59.5805 256.272H64.5624L64.9146 259.027C65.0656 260.53 65.4178 261.782 65.5688 261.782C65.7701 261.782 66.223 263.285 66.5752 265.139C66.9275 266.992 67.4307 268.645 67.632 268.795C67.8836 268.946 68.2358 269.797 68.4371 270.699C68.5881 271.55 68.9403 272.302 69.1919 272.302C69.3932 272.302 69.8461 273.454 70.1983 274.806C70.5506 276.209 71.0035 277.311 71.2551 277.311C71.5067 277.311 71.708 277.661 71.708 278.062C71.708 278.513 72.0099 278.964 72.4125 279.114C72.8151 279.264 73.3183 280.066 73.4692 280.917C73.6705 281.719 74.1234 282.52 74.4757 282.671C74.8782 282.771 75.3311 283.572 75.4821 284.374C75.6834 285.175 76.0356 285.826 76.3376 285.826C76.5892 285.826 74.0228 288.631 70.5506 292.088C67.1287 295.544 64.0088 298.349 63.7069 298.349C63.405 298.349 63.0024 298.7 62.8514 299.101C62.7005 299.501 61.5431 299.952 60.3354 300.152C59.1276 300.303 58.1212 300.653 58.1212 300.904C58.1212 301.154 57.4167 301.355 56.5612 301.355C54.4981 301.355 50.573 302.356 50.573 302.907C50.573 303.158 50.2711 303.358 49.9188 303.358C49.5163 303.358 48.7111 303.809 48.0569 304.36C47.4028 304.911 46.6983 305.362 46.4466 305.362C45.6918 305.362 42.3706 308.969 41.5152 310.622C41.1126 311.473 40.6597 312.224 40.5087 312.375C39.9049 312.926 38.9991 315.531 38.9991 316.633C38.9991 317.334 38.7978 317.885 38.4959 317.885C38.1939 317.885 37.9927 319.888 37.9927 322.894C37.9927 325.699 38.1939 327.903 38.4455 327.903C38.7475 327.903 39.0997 328.905 39.301 330.157C39.452 331.46 39.9049 332.762 40.2571 333.063C40.6094 333.413 41.0623 334.215 41.2132 334.816C41.6661 336.118 45.6918 340.426 46.497 340.426C46.7989 340.426 47.0505 340.626 47.0505 340.877C47.0505 341.127 47.8556 341.628 48.8118 341.979C49.7679 342.329 50.573 342.83 50.573 343.031C50.573 343.231 51.4788 343.582 52.5859 343.732C53.6929 343.932 54.7497 344.283 54.9006 344.483C55.2529 345.084 65.6694 345.084 65.6694 344.483C65.6694 344.233 66.5752 343.882 67.6823 343.682C68.7894 343.482 69.6951 343.181 69.6951 342.931C69.6951 342.73 70.2487 342.38 70.9532 342.229C72.3118 341.879 78.2498 336.469 78.2498 335.567C78.2498 335.267 78.5517 334.916 78.9543 334.766C79.3065 334.615 79.8097 333.864 80.011 333.063C80.162 332.311 80.5142 331.56 80.7658 331.41C81.2691 331.109 82.2755 323.796 82.2755 320.54C82.2755 319.337 82.4768 318.386 82.7284 318.386C82.98 318.386 83.3322 317.584 83.4832 316.633C83.6845 315.681 83.9864 314.879 84.238 314.879C84.4393 314.879 84.9425 314.278 85.2948 313.577C85.6973 312.876 87.9115 310.421 90.2766 308.117C94.0507 304.36 94.6042 303.959 95.5603 304.46C96.1642 304.761 96.7177 305.162 96.8687 305.312C97.2209 305.713 99.8376 307.215 101.549 307.967C102.303 308.317 102.907 308.768 102.907 308.918C102.907 309.119 103.612 309.419 104.417 309.62C105.272 309.82 105.927 310.121 105.927 310.371C105.927 310.571 107.084 311.022 108.443 311.373C109.852 311.724 110.959 312.174 110.959 312.375C110.959 312.575 112.418 313.076 114.23 313.427C116.041 313.777 117.5 314.228 117.5 314.429C117.5 314.629 118.909 314.929 120.671 315.13C122.382 315.33 123.942 315.731 124.143 316.082C125.149 317.584 124.143 328.905 122.985 328.905C122.734 328.905 122.533 329.155 122.533 329.506C122.533 329.807 120.973 331.61 119.06 333.463C117.148 335.367 115.437 337.37 115.236 337.921C115.085 338.472 114.733 338.923 114.532 338.923C114.28 338.923 113.827 339.675 113.424 340.526C113.072 341.428 112.67 342.279 112.519 342.43C112.015 342.88 110.959 346.186 110.959 347.339C110.959 347.94 110.757 348.441 110.455 348.441C110.154 348.441 109.952 350.595 109.952 353.951C109.952 356.956 110.154 359.461 110.355 359.461C110.556 359.461 111.059 360.813 111.361 362.466C111.714 364.119 112.217 365.472 112.468 365.472C112.67 365.472 113.072 366.173 113.223 367.075C113.626 368.728 120.771 376.492 121.929 376.492C122.281 376.492 122.533 376.692 122.533 376.943C122.533 377.193 123.136 377.544 123.841 377.694C124.596 377.894 125.502 378.345 125.854 378.746C126.256 379.147 127.917 379.597 129.578 379.798C131.238 379.998 132.597 380.349 132.597 380.549C132.597 380.8 134.509 381 136.874 381C139.39 381 141.152 380.8 141.152 380.499C141.152 380.199 141.755 379.998 142.46 379.998C144.221 379.998 148.197 378.946 148.197 378.495C148.197 378.295 148.8 377.944 149.505 377.794C151.015 377.393 151.266 377.193 155.644 372.985C158.714 370.08 161.28 366.223 161.28 364.57C161.28 364.269 161.481 363.969 161.733 363.969C162.035 363.969 162.387 362.967 162.588 361.715C162.739 360.463 163.092 359.31 163.343 359.16C163.947 358.81 163.897 349.593 163.293 349.192C163.041 349.042 162.79 348.14 162.79 347.188C162.79 346.287 162.488 345.185 162.085 344.834C161.733 344.433 161.23 343.431 161.079 342.58C160.777 341.177 160.324 340.476 158.261 338.072C158.009 337.721 157.758 337.32 157.758 337.12C157.758 336.92 156.399 335.417 154.789 333.814C153.128 332.211 151.618 330.408 151.417 329.756C151.216 329.155 150.813 328.504 150.511 328.304C150.159 328.053 149.907 325.549 149.807 321.742L149.606 315.531L152.675 315.18C154.386 314.98 155.745 314.679 155.745 314.479C155.745 314.278 157.254 313.827 159.116 313.477C160.978 313.126 162.639 312.625 162.79 312.375C162.941 312.124 164.148 311.673 165.457 311.373C166.765 311.022 167.822 310.571 167.822 310.371C167.822 310.171 168.375 309.82 169.08 309.67C169.784 309.469 170.338 309.169 170.338 308.918C170.338 308.668 171.042 308.317 171.898 308.117C172.753 307.917 173.558 307.466 173.709 307.115C173.81 306.714 174.615 306.264 175.42 306.113C176.226 305.913 176.88 305.562 176.88 305.312C176.88 305.061 177.383 304.661 178.037 304.41C178.993 304.06 179.647 304.51 182.969 307.867C185.082 309.97 186.944 312.124 187.095 312.575C187.296 313.026 187.598 313.377 187.85 313.377C188.907 313.377 189.561 319.137 189.007 322.794C187.95 329.556 188.554 343.231 190.014 344.684C190.265 344.934 190.466 345.535 190.466 345.986C190.466 346.487 190.768 347.188 191.121 347.539C191.523 347.89 192.127 349.092 192.479 350.194C192.832 351.296 193.435 352.398 193.788 352.598C194.19 352.799 194.492 353.299 194.492 353.6C194.492 353.951 195.096 354.802 195.901 355.453C196.656 356.155 197.562 357.307 197.964 358.058C198.367 358.81 199.172 359.611 199.726 359.761C200.329 359.962 201.336 360.713 202.04 361.414C202.745 362.166 204.003 363.067 204.808 363.468C205.664 363.869 206.62 364.52 206.972 364.871C207.324 365.171 207.978 365.472 208.381 365.472C208.783 365.472 209.085 365.672 209.085 365.922C209.085 366.173 210.293 366.674 211.752 366.974C213.161 367.325 214.52 367.826 214.671 368.076C214.822 368.277 216.785 368.627 219.049 368.828C221.314 368.978 223.175 369.329 223.175 369.529C223.175 369.78 224.081 369.98 225.188 369.98C226.295 369.98 227.201 369.78 227.201 369.529C227.201 369.329 229.164 368.978 231.579 368.828C233.944 368.627 236.058 368.327 236.209 368.076C236.36 367.826 237.718 367.325 239.178 366.974C240.587 366.674 241.794 366.173 241.794 365.973C241.794 365.722 242.499 365.422 243.304 365.221C244.159 365.021 244.814 364.67 244.814 364.42C244.814 364.169 245.367 363.718 246.072 363.468C246.776 363.218 247.33 362.767 247.33 362.466C247.33 362.216 247.581 361.965 247.934 361.965C248.235 361.965 250.248 360.162 252.311 358.008C256.891 353.249 256.991 353.149 257.847 351.095C258.199 350.194 258.702 349.442 258.853 349.442C259.055 349.442 259.507 348.24 259.91 346.788C260.262 345.385 260.765 344.033 261.017 343.882C261.269 343.732 261.571 342.43 261.772 341.027C261.923 339.574 262.275 338.422 262.476 338.422C262.728 338.422 262.929 335.467 262.929 331.91C262.929 328.254 262.728 325.399 262.476 325.399C262.225 325.399 261.822 324.146 261.671 322.644C261.47 321.141 261.168 319.888 260.967 319.888C260.765 319.888 260.313 318.736 259.96 317.384C259.608 315.981 259.105 314.879 258.904 314.879C258.652 314.879 258.3 314.378 258.098 313.777C257.696 312.425 255.884 309.77 255.029 309.219C254.677 309.019 254.375 308.568 254.375 308.267C254.375 307.666 250.55 303.859 249.946 303.859C249.745 303.859 249.041 303.258 248.386 302.607C247.732 301.906 246.927 301.355 246.575 301.355C246.223 301.355 245.82 301.004 245.619 300.603C245.468 300.203 245.015 299.852 244.562 299.852C244.159 299.852 243.807 299.652 243.807 299.451C243.807 299.05 240.889 297.848 239.832 297.848C239.48 297.848 238.876 297.548 238.473 297.147C238.121 296.746 236.309 296.245 234.498 296.095C232.686 295.895 231.227 295.544 231.227 295.294C231.227 294.592 219.754 294.743 219.552 295.444C219.401 295.845 217.64 296.045 214.067 296.045C209.639 296.095 208.633 295.945 207.878 295.244C207.374 294.743 206.771 294.342 206.469 294.342C206.167 294.342 204.003 292.438 201.738 290.084C197.713 286.027 197.562 285.776 198.115 284.474C198.417 283.672 198.971 282.821 199.273 282.57C199.625 282.27 200.078 281.518 200.279 280.817C200.48 280.116 201.084 279.014 201.588 278.363C202.141 277.712 202.544 276.86 202.544 276.509C202.544 276.109 202.745 275.808 202.946 275.808C203.198 275.808 203.651 274.706 204.003 273.303C204.355 271.951 204.858 270.799 205.06 270.799C205.311 270.799 205.613 269.897 205.815 268.795C206.016 267.693 206.368 266.792 206.569 266.792C206.821 266.792 207.274 265.088 207.626 263.035C207.928 260.981 208.431 259.278 208.633 259.278C208.884 259.278 209.085 258.577 209.085 257.775V256.272H214.118C216.885 256.272 219.15 256.473 219.15 256.723C219.15 256.974 219.905 257.324 220.861 257.475C221.766 257.675 223.075 258.226 223.679 258.777C224.333 259.328 225.138 259.779 225.44 259.779C225.792 259.779 226.346 260.38 226.648 261.131C227 261.933 228.057 263.085 229.013 263.786C230.019 264.487 231.177 265.389 231.629 265.84C232.082 266.291 233.038 266.842 233.743 267.042C234.397 267.242 235.253 267.743 235.655 268.094C236.007 268.495 236.863 268.795 237.517 268.795C238.171 268.795 238.775 268.996 238.876 269.296C239.178 270.248 246.977 270.849 251.657 270.298C254.073 270.048 256.186 269.597 256.337 269.396C256.488 269.146 257.394 268.745 258.3 268.545C259.155 268.395 259.91 268.044 259.91 267.894C259.91 267.693 260.615 267.192 261.52 266.842C263.433 265.99 269.471 260.079 269.471 259.078C269.471 258.677 269.823 258.276 270.226 258.076C270.628 257.925 270.981 257.475 270.981 257.024C270.981 256.623 271.182 256.272 271.434 256.272C271.685 256.272 272.188 255.02 272.541 253.517C272.893 252.015 273.346 250.762 273.597 250.762C273.799 250.762 274 247.707 274 244C274 240.293 273.799 237.238 273.597 237.238C273.346 237.238 272.893 235.985 272.541 234.483C272.188 232.98 271.685 231.728 271.434 231.728C271.182 231.728 270.981 231.377 270.981 230.976C270.981 230.626 270.679 230.075 270.327 229.874C269.974 229.674 269.421 228.872 269.119 228.071C268.767 227.32 268.263 226.718 267.961 226.718C267.71 226.718 267.458 226.418 267.458 226.067C267.458 225.316 265.244 223.212 264.439 223.212C264.187 223.212 263.734 222.811 263.483 222.26C263.181 221.759 262.325 221.158 261.571 220.958C260.816 220.808 260.061 220.457 259.91 220.307C258.249 218.153 249.997 216.8 243.002 217.602C240.285 217.902 237.97 218.353 237.819 218.604C237.668 218.854 237.014 219.205 236.41 219.405C235.756 219.605 235.253 219.956 235.253 220.207C235.253 220.457 234.548 220.758 233.693 220.958C232.837 221.158 232.032 221.609 231.881 222.01C231.73 222.411 231.378 222.711 231.126 222.711C230.573 222.711 229.717 223.463 225.691 227.32C223.175 229.824 221.464 230.726 219.351 230.726C218.697 230.726 218.143 230.926 218.143 231.227C218.143 231.527 216.281 231.728 213.614 231.728H209.085V230.225C209.085 229.373 208.884 228.722 208.633 228.722C208.431 228.722 207.928 227.019 207.626 224.965C207.274 222.912 206.821 221.208 206.569 221.208C206.368 221.208 206.016 220.307 205.815 219.205C205.613 218.103 205.311 217.201 205.06 217.201C204.858 217.201 204.406 216.049 204.053 214.697C203.701 213.294 203.248 212.192 203.047 212.192C202.846 212.192 202.493 211.591 202.292 210.839C202.141 210.088 201.789 209.337 201.588 209.186C201.386 209.036 200.279 207.333 199.172 205.329L197.109 201.723L203.147 195.712C206.469 192.356 209.538 189.651 209.891 189.651C210.243 189.651 210.796 189.2 211.098 188.649C211.4 188.098 211.954 187.647 212.356 187.647C212.709 187.647 213.111 187.447 213.212 187.196C213.312 186.896 214.923 186.445 216.885 186.144C218.797 185.844 220.508 185.393 220.659 185.193C220.81 184.942 221.867 184.491 223.075 184.141C224.232 183.79 225.188 183.289 225.188 183.089C225.188 182.888 226.195 181.786 227.453 180.584C228.711 179.382 229.717 178.18 229.717 177.829C229.717 177.529 230.069 177.128 230.472 176.928C230.875 176.777 231.227 176.126 231.227 175.425C231.227 174.774 231.529 174.122 231.881 173.972C232.736 173.722 232.736 160.748 231.881 160.197C231.579 159.997 231.126 159.195 230.975 158.444C230.774 157.693 230.422 157.091 230.17 157.091C229.918 157.091 229.717 156.841 229.717 156.49C229.717 155.789 224.937 151.08 224.182 151.08C223.93 151.08 223.679 150.88 223.679 150.63C223.679 150.379 222.421 149.878 220.911 149.528C219.401 149.177 218.143 148.726 218.143 148.476C218.143 148.275 216.332 148.075 214.118 148.075C211.752 148.075 210.092 148.275 210.092 148.576C210.092 148.826 209.538 149.077 208.884 149.077C207.324 149.077 204.556 150.079 204.556 150.63C204.556 150.88 204.255 151.08 203.852 151.08C203.449 151.08 202.795 151.381 202.443 151.732C202.091 152.132 201.286 152.683 200.631 153.034C200.028 153.335 199.524 153.936 199.524 154.336C199.524 154.737 199.273 155.088 199.021 155.088C198.719 155.088 198.216 155.689 197.864 156.44C197.562 157.242 197.008 158.143 196.656 158.494C196.304 158.845 196.002 159.696 196.002 160.397C196.002 161.049 195.801 161.6 195.549 161.6C195.348 161.6 194.844 163.253 194.543 165.306C194.14 167.661 193.637 169.113 193.184 169.314C192.781 169.464 192.479 169.815 192.479 170.165C192.479 170.466 189.46 173.722 185.787 177.378C179.949 183.189 178.993 183.94 177.987 183.59C177.383 183.339 176.88 182.939 176.88 182.638C176.88 182.388 176.578 182.137 176.175 182.137C175.823 182.137 175.219 181.786 174.867 181.386C174.515 180.985 173.357 180.384 172.3 180.033C171.193 179.733 170.338 179.282 170.338 179.082C170.338 178.831 169.432 178.38 168.325 178.08C167.218 177.729 166.312 177.278 166.312 177.078C166.312 176.827 165.507 176.527 164.551 176.327C163.595 176.176 162.79 175.826 162.79 175.625C162.79 175.425 161.431 174.974 159.77 174.623C158.11 174.273 156.751 173.822 156.751 173.571C156.751 173.371 155.292 173.02 153.48 172.87C150.562 172.52 150.159 172.369 149.907 171.317C149.455 169.464 149.907 160.097 150.511 159.696C150.813 159.496 151.316 158.594 151.669 157.693C152.071 156.841 152.524 156.09 152.776 156.09C152.977 156.09 153.329 155.639 153.48 155.088C153.631 154.537 154.084 154.086 154.386 154.086C155.141 154.086 157.254 151.882 157.254 151.181C157.254 150.88 157.556 150.429 157.909 150.229C159.016 149.528 161.28 145.821 161.28 144.669C161.28 144.068 161.481 143.567 161.733 143.567C162.035 143.567 162.387 142.565 162.588 141.313C162.739 140.06 163.092 138.908 163.343 138.758C163.947 138.407 163.947 128.539 163.343 128.539C163.092 128.539 162.739 127.537 162.588 126.285C162.387 125.033 162.035 124.031 161.733 124.031C161.481 124.031 161.28 123.58 161.28 122.979C161.28 121.476 160.123 119.473 158.16 117.619C157.657 117.169 157.254 116.618 157.254 116.367C157.254 115.816 155.141 113.512 154.638 113.512C154.386 113.512 153.782 113.111 153.279 112.61C151.467 111.007 150.763 110.506 150.26 110.506C150.008 110.506 149.455 110.156 149.052 109.755C148.649 109.354 146.788 108.753 144.976 108.403C143.164 108.052 141.655 107.601 141.655 107.401C141.655 107.15 139.39 107 136.623 107C133.855 107 131.59 107.2 131.59 107.401ZM35.225 148.876C36.9359 150.73 36.8856 152.784 35.0237 154.637C33.0612 156.54 31.2999 156.54 29.3374 154.587C28.029 153.234 27.8277 152.784 28.1297 151.181C28.6832 147.624 32.8599 146.322 35.225 148.876ZM50.1201 156.59C51.2775 160.397 47.8556 163.253 44.2325 161.499C41.2132 160.097 41.5655 154.988 44.7357 154.186C47.3524 153.485 49.4659 154.437 50.1201 156.59ZM37.9927 163.102C38.9991 163.854 39.2507 164.505 39.2507 166.358C39.2507 169.163 37.8417 170.616 35.1747 170.616C32.8096 170.616 31.4509 169.163 31.4509 166.609C31.4509 162.802 35.074 160.848 37.9927 163.102ZM154.185 204.227C156.449 205.029 157.556 207.684 156.5 209.737C154.034 214.446 147.391 211.841 148.7 206.682C148.851 205.931 149.706 205.079 150.763 204.578C151.669 204.077 152.474 203.676 152.524 203.676C152.574 203.676 153.279 203.927 154.185 204.227ZM123.992 209.237C127.464 210.288 130.332 211.891 132.496 213.895C133.654 214.997 134.61 216.199 134.61 216.55C134.61 216.901 134.811 217.201 135.063 217.201C135.817 217.201 137.629 223.212 137.629 225.717C137.629 231.678 133.402 238.189 127.766 240.844C124.244 242.497 117.299 242.497 113.777 240.844C110.858 239.442 106.078 234.783 105.625 232.83C105.423 232.078 105.021 231.177 104.719 230.776C104.417 230.375 104.165 228.221 104.216 225.767C104.216 222.361 104.467 220.958 105.373 219.004C107.587 214.396 111.412 211.24 117.249 209.287C119.312 208.585 121.878 208.585 123.992 209.237ZM164.45 233.23C166.765 233.882 171.093 238.039 172.602 240.944C174.162 243.95 174.011 250.762 172.401 253.968C170.942 256.773 168.929 258.827 165.809 260.68C163.796 261.883 163.041 262.033 158.764 262.033C154.386 262.033 153.782 261.933 151.568 260.58C146.184 257.374 143.668 253.167 143.668 247.356C143.668 240.343 148.146 234.332 154.537 232.78C156.852 232.178 161.733 232.429 164.45 233.23ZM103.159 247.056C104.669 248.057 105.524 250.412 104.92 251.965C103.863 254.72 100.14 255.621 98.0261 253.668C96.3151 252.065 96.4158 248.709 98.177 247.306C99.7873 246.054 101.498 245.954 103.159 247.056ZM128.621 254.77C130.483 255.271 134.61 258.677 134.61 259.679C134.61 260.029 134.811 260.28 135.063 260.28C135.666 260.28 136.623 264.287 136.623 266.892C136.623 269.497 135.767 272.803 135.113 272.803C134.811 272.803 134.61 273.103 134.61 273.504C134.61 274.556 130.886 277.661 129.125 278.062C128.269 278.212 127.464 278.613 127.313 278.864C126.76 279.715 121.677 279.365 119.262 278.313C111.16 274.856 108.845 264.037 114.884 258.026C117.148 255.771 117.953 255.22 119.413 254.77C121.375 254.169 126.508 254.169 128.621 254.77ZM154.436 279.815C155.141 280.066 156.047 280.967 156.5 281.819C157.254 283.272 157.254 283.572 156.55 285.075C155.493 287.279 153.38 288.131 150.964 287.329C149.606 286.878 149.102 286.377 148.851 285.275C148.498 283.522 148.498 283.622 148.851 281.869C149.253 279.815 151.92 278.864 154.436 279.815ZM226.799 313.226C228.107 314.378 228.006 317.735 226.597 319.237C224.182 321.792 219.401 319.788 219.502 316.232C219.552 314.479 220.659 312.826 222.169 312.224C223.326 311.774 225.792 312.275 226.799 313.226ZM240.838 319.838C242.549 321.592 242.65 322.443 241.241 324.697C240.285 326.25 239.983 326.4 237.769 326.4C235.756 326.4 235.253 326.2 234.548 325.148C231.579 320.64 237.014 316.031 240.838 319.838ZM229.969 328.504C231.529 330.307 231.428 332.211 229.717 334.014C227.352 336.569 222.672 334.565 222.672 330.959C222.672 326.951 227.302 325.348 229.969 328.504Z" fill="url(#paint1_linear)"/>
<path d="M357.261 232H346.143L317.622 186.604V232H306.504V168.016H317.622L346.23 213.587V168.016H357.261V232ZM415.615 201.678C415.615 207.947 414.531 213.455 412.363 218.201C410.195 222.918 407.089 226.551 403.046 229.1C399.033 231.619 394.404 232.879 389.16 232.879C383.974 232.879 379.345 231.619 375.273 229.1C371.23 226.551 368.095 222.933 365.869 218.245C363.671 213.558 362.558 208.152 362.529 202.029V198.426C362.529 192.186 363.628 186.678 365.825 181.902C368.051 177.127 371.171 173.479 375.185 170.96C379.228 168.411 383.857 167.137 389.072 167.137C394.287 167.137 398.901 168.396 402.915 170.916C406.958 173.406 410.078 177.01 412.275 181.727C414.472 186.414 415.586 191.878 415.615 198.118V201.678ZM404.497 198.338C404.497 191.248 403.149 185.813 400.454 182.034C397.788 178.255 393.994 176.365 389.072 176.365C384.267 176.365 380.503 178.255 377.778 182.034C375.083 185.784 373.706 191.102 373.647 197.986V201.678C373.647 208.709 375.009 214.144 377.734 217.981C380.488 221.819 384.296 223.738 389.16 223.738C394.082 223.738 397.861 221.863 400.498 218.113C403.164 214.363 404.497 208.885 404.497 201.678V198.338ZM442.416 218.069L458.676 168.016H470.893L447.865 232H437.099L414.159 168.016H426.332L442.416 218.069ZM509.691 203.436H483.412V223.123H514.13V232H472.294V168.016H513.822V176.98H483.412V194.646H509.691V203.436ZM528.451 223.123H557.498V232H517.332V168.016H528.451V223.123ZM355.327 316.17C354.683 322.996 352.163 328.328 347.769 332.166C343.374 335.975 337.529 337.879 330.234 337.879C325.137 337.879 320.64 336.678 316.743 334.275C312.876 331.844 309.888 328.401 307.778 323.948C305.669 319.495 304.57 314.324 304.482 308.436V302.459C304.482 296.424 305.552 291.106 307.69 286.507C309.829 281.907 312.891 278.362 316.875 275.872C320.889 273.382 325.518 272.137 330.762 272.137C337.822 272.137 343.506 274.056 347.812 277.894C352.119 281.731 354.624 287.151 355.327 294.153H344.253C343.726 289.554 342.378 286.243 340.21 284.222C338.071 282.171 334.922 281.146 330.762 281.146C325.928 281.146 322.207 282.918 319.6 286.463C317.021 289.979 315.703 295.149 315.645 301.976V307.645C315.645 314.559 316.875 319.832 319.336 323.465C321.826 327.098 325.459 328.914 330.234 328.914C334.6 328.914 337.881 327.933 340.078 325.97C342.275 324.007 343.667 320.74 344.253 316.17H355.327ZM356.421 312.786C356.421 308.128 357.343 303.938 359.189 300.218C361.035 296.468 363.628 293.597 366.967 291.604C370.307 289.583 374.145 288.572 378.481 288.572C384.897 288.572 390.097 290.638 394.082 294.769C398.095 298.899 400.263 304.378 400.586 311.204L400.629 313.709C400.629 318.396 399.721 322.586 397.905 326.277C396.118 329.969 393.54 332.825 390.171 334.847C386.831 336.868 382.963 337.879 378.569 337.879C371.86 337.879 366.484 335.652 362.441 331.199C358.427 326.717 356.421 320.755 356.421 313.313V312.786ZM367.099 313.709C367.099 318.602 368.11 322.439 370.131 325.223C372.153 327.977 374.965 329.354 378.569 329.354C382.172 329.354 384.97 327.947 386.963 325.135C388.984 322.322 389.995 318.206 389.995 312.786C389.995 307.981 388.955 304.173 386.875 301.36C384.824 298.548 382.026 297.142 378.481 297.142C374.995 297.142 372.226 298.533 370.175 301.316C368.125 304.07 367.099 308.201 367.099 313.709ZM427.387 323.069L443.647 273.016H455.863L432.836 337H422.07L399.13 273.016H411.303L427.387 323.069ZM468.998 337H457.924V273.016H468.998V337ZM476.815 337V273.016H495.711C501.366 273.016 506.375 274.275 510.741 276.795C515.135 279.314 518.534 282.889 520.936 287.518C523.338 292.146 524.539 297.449 524.539 303.426V306.634C524.539 312.698 523.324 318.03 520.892 322.63C518.49 327.229 515.047 330.774 510.565 333.265C506.112 335.755 500.999 337 495.228 337H476.815ZM487.933 281.98V328.123H495.184C501.014 328.123 505.482 326.307 508.587 322.674C511.722 319.012 513.319 313.768 513.377 306.941V303.382C513.377 296.438 511.869 291.136 508.851 287.474C505.833 283.812 501.454 281.98 495.711 281.98H487.933ZM556.966 337H546.331V285.628L530.643 290.989V281.98L555.604 272.796H556.966V337ZM603.63 310.237C600.056 314.017 595.881 315.906 591.106 315.906C585.481 315.906 580.999 313.943 577.659 310.018C574.319 306.062 572.649 300.877 572.649 294.461C572.649 290.242 573.499 286.419 575.198 282.991C576.897 279.563 579.314 276.897 582.449 274.993C585.584 273.089 589.216 272.137 593.347 272.137C599.793 272.137 604.905 274.539 608.684 279.344C612.463 284.148 614.353 290.579 614.353 298.636V301.624C614.353 313.167 611.746 321.971 606.531 328.035C601.316 334.1 593.538 337.176 583.196 337.264H581.921V328.431H583.46C589.758 328.343 594.592 326.834 597.962 323.904C601.331 320.945 603.22 316.39 603.63 310.237ZM593.347 307.557C595.486 307.557 597.493 306.941 599.368 305.711C601.243 304.48 602.693 302.781 603.718 300.613V296.438C603.718 291.722 602.752 287.928 600.818 285.057C598.884 282.186 596.379 280.75 593.303 280.75C590.227 280.75 587.766 282.024 585.921 284.573C584.104 287.093 583.196 290.286 583.196 294.153C583.196 298.167 584.119 301.404 585.964 303.865C587.81 306.326 590.271 307.557 593.347 307.557Z" fill="url(#paint2_linear)"/>
<path d="M741.774 290.613H667.312L650.588 337H626.418L694.289 159.266H714.797L782.79 337H758.742L741.774 290.613ZM674.392 271.326H734.816L704.543 188.196L674.392 271.326ZM813.903 267.42V337H790.466V159.266H856.018C875.467 159.266 890.686 164.23 901.672 174.158C912.74 184.087 918.273 197.229 918.273 213.587C918.273 230.84 912.862 244.145 902.038 253.504C891.296 262.781 875.874 267.42 855.773 267.42H813.903ZM813.903 248.255H856.018C868.55 248.255 878.153 245.325 884.826 239.466C891.499 233.525 894.836 224.98 894.836 213.831C894.836 203.252 891.499 194.788 884.826 188.44C878.153 182.093 868.998 178.797 857.36 178.553H813.903V248.255ZM957.077 337H933.64V159.266H957.077V337Z" fill="url(#paint3_linear)"/>
</g>
<defs>
<linearGradient id="paint0_linear" x1="23.8236" y1="-4.71466e-05" x2="829.167" y2="489.598" gradientUnits="userSpaceOnUse">
<stop stop-color="#0199EE"/>
<stop offset="1" stop-color="#01E5BB"/>
</linearGradient>
<linearGradient id="paint1_linear" x1="137" y1="381" x2="137" y2="107" gradientUnits="userSpaceOnUse">
<stop stop-color="#0199EE"/>
<stop offset="1" stop-color="#01E5BB"/>
</linearGradient>
<linearGradient id="paint2_linear" x1="300" y1="129" x2="960" y2="337" gradientUnits="userSpaceOnUse">
<stop stop-color="#0199EE"/>
<stop offset="1" stop-color="#01E5BB"/>
</linearGradient>
<linearGradient id="paint3_linear" x1="299" y1="146" x2="977" y2="337" gradientUnits="userSpaceOnUse">
<stop stop-color="#0199EE"/>
<stop offset="1" stop-color="#01E5BB"/>
</linearGradient>
<clipPath id="clip0">
<rect width="1080" height="398" fill="white"/>
</clipPath>
</defs>
</svg>
